<?xml version="1.0" encoding="UTF-8"?>
<svg version="1.1" xmlns="http://www.w3.org/2000/svg" width="500" height="500">
<path d="M0 0 C0.91909149 0.00215515 1.83818298 0.0043103 2.78512573 0.00653076 C53.99498674 0.19867117 104.98634682 15.64635388 146.375 46.3125 C146.96249023 46.74449707 147.54998047 47.17649414 148.15527344 47.62158203 C154.76469208 52.50736797 161.0593493 57.65859024 167.109375 63.23046875 C169.18392036 65.1369044 171.29765931 66.9801561 173.4375 68.8125 C181.60852053 75.96624488 188.65955737 83.79036469 195.375 92.3125 C196.56416016 93.79363281 196.56416016 93.79363281 197.77734375 95.3046875 C229.19477543 135.11002748 250.31221825 186.85668042 250.578125 238.04296875 C250.58513931 238.947659 250.59215363 239.85234924 250.59938049 240.78445435 C250.6168005 243.68968735 250.62323321 246.59471668 250.625 249.5 C250.62567474 250.49148041 250.62634949 251.48296082 250.62704468 252.50448608 C250.61169249 266.6739795 250.21256564 280.38999536 247.375 294.3125 C247.0311632 296.16795267 246.6874171 298.02342214 246.34375 299.87890625 C240.04836093 332.33659542 226.94005613 365.47736837 207.375 392.3125 C206.94106934 392.91336426 206.50713867 393.51422852 206.06005859 394.13330078 C192.26711181 413.16898686 177.01823462 430.85935225 158.375 445.3125 C156.93833984 446.47458984 156.93833984 446.47458984 155.47265625 447.66015625 C111.45776238 482.6833568 56.73149676 500.86260006 0.75 500.625 C-0.16909149 500.62284485 -1.08818298 500.6206897 -2.03512573 500.61846924 C-40.21132518 500.47523139 -76.25718959 492.00461598 -110.625 475.3125 C-111.34606934 474.96493652 -112.06713867 474.61737305 -112.81005859 474.25927734 C-136.57733618 462.65917221 -157.55869473 446.50844612 -176.625 428.3125 C-177.49769531 427.48105469 -178.37039062 426.64960938 -179.26953125 425.79296875 C-185.21147529 419.99706327 -190.55582775 413.87883342 -195.625 407.3125 C-196.14078613 406.65137207 -196.65657227 405.99024414 -197.18798828 405.30908203 C-225.20150601 369.19000705 -242.81161776 326.63951227 -248.625 281.3125 C-248.71232895 280.64062653 -248.7996579 279.96875305 -248.88963318 279.27651978 C-249.56555995 273.69796354 -249.79894817 268.19848719 -249.828125 262.58203125 C-249.83864647 261.22499588 -249.83864647 261.22499588 -249.84938049 259.84054565 C-249.8668005 256.93531265 -249.87323321 254.03028332 -249.875 251.125 C-249.87567474 250.13351959 -249.87634949 249.14203918 -249.87704468 248.12051392 C-249.8616899 233.94862705 -249.45342533 220.2383518 -246.625 206.3125 C-246.29256516 204.49226116 -245.96055109 202.67194544 -245.62890625 200.8515625 C-238.34014691 162.75569062 -221.76012351 126.66892591 -197.625 96.3125 C-196.90957031 95.405 -196.19414062 94.4975 -195.45703125 93.5625 C-154.07561078 42.00051768 -93.89419932 8.42042819 -28.08779907 0.98945618 C-18.73423218 0.01775952 -9.39564812 -0.03987758 0 0 Z " fill="#36DDE1" transform="translate(249.625,-0.3125)"/>
<path d="M0 0 C3.26294757 1.08764919 3.62169918 1.48851217 5.4609375 4.18359375 C5.92564453 4.85455078 6.39035156 5.52550781 6.86914062 6.21679688 C7.36607422 6.94962891 7.86300781 7.68246094 8.375 8.4375 C9.45469439 9.99941373 10.53545887 11.56058818 11.6171875 13.12109375 C12.1750293 13.9291748 12.73287109 14.73725586 13.30761719 15.56982422 C15.98698287 19.41725728 18.74340661 23.20771391 21.5 27 C25.70780545 32.80496978 29.87594832 38.63524179 34 44.5 C38.25464314 50.54782302 42.54704762 56.56689624 46.875 62.5625 C47.39835938 63.28824219 47.92171875 64.01398438 48.4609375 64.76171875 C51.53779598 69.01594654 54.67377153 73.21100517 57.90283203 77.35131836 C59 79 59 79 59 81 C66.35977985 75.96778304 73.64809817 70.84619098 80.875 65.625 C81.63224365 65.07859863 82.3894873 64.53219727 83.16967773 63.96923828 C86.92857242 61.24952744 90.66868863 58.50846514 94.37890625 55.72265625 C95.0642041 55.2107373 95.74950195 54.69881836 96.45556641 54.17138672 C97.74768054 53.20397237 99.03536353 52.23060247 100.31787109 51.25048828 C104.66608525 48 104.66608525 48 108 48 C109.52709961 49.90161133 109.52709961 49.90161133 111.15234375 52.58203125 C111.75755859 53.566875 112.36277344 54.55171875 112.98632812 55.56640625 C113.63021484 56.63761719 114.27410156 57.70882812 114.9375 58.8125 C116.30031837 61.03804393 117.66360464 63.2633014 119.02734375 65.48828125 C119.70265137 66.59768066 120.37795898 67.70708008 121.07373047 68.85009766 C123.67028088 73.0960664 126.32942148 77.30036278 129 81.5 C133.52751696 88.64955986 138.01889047 95.82127612 142.5 103 C147.14985695 110.44818447 151.81061283 117.88913136 156.5 125.3125 C156.98758789 126.0852124 157.47517578 126.8579248 157.97753906 127.65405273 C160.06778118 130.96239898 162.16532471 134.26496424 164.296875 137.546875 C164.94140625 138.54203125 165.5859375 139.5371875 166.25 140.5625 C166.79140625 141.38878906 167.3328125 142.21507812 167.890625 143.06640625 C169 145 169 145 169 147 C58.12 147 -52.76 147 -167 147 C-165.48179758 143.20449395 -164.08629982 140.32303455 -161.9453125 136.9296875 C-161.3366333 135.9605542 -160.7279541 134.9914209 -160.10083008 133.99291992 C-159.44880615 132.96400635 -158.79678223 131.93509277 -158.125 130.875 C-157.45170654 129.80548096 -156.77841309 128.73596191 -156.0847168 127.6340332 C-154.06033031 124.42023889 -152.03057792 121.20988484 -150 118 C-148.92024622 116.28796642 -147.84079115 114.57574438 -146.76171875 112.86328125 C-143.36799355 107.48068555 -139.96487595 102.10405046 -136.56152344 96.72753906 C-135.10298062 94.4228639 -133.64504863 92.11780404 -132.1875 89.8125 C-131.46276489 88.66648315 -131.46276489 88.66648315 -130.72338867 87.49731445 C-127.84210691 82.93516782 -124.97602368 78.36384392 -122.12109375 73.78515625 C-121.45762939 72.72127686 -120.79416504 71.65739746 -120.1105957 70.5612793 C-118.82266877 68.49454691 -117.53597243 66.42704695 -116.25073242 64.35864258 C-112.60151226 58.50163188 -108.8684998 52.71470799 -105 47 C-99.90552111 50.6680248 -95.11251491 54.57732725 -90.375 58.6875 C-84.96720506 63.37635649 -79.44731834 67.87672532 -73.78125 72.24975586 C-70.69257695 74.63914838 -67.74044596 77.09839329 -64.875 79.75 C-62.34062023 82.25628988 -62.34062023 82.25628988 -59.98022461 81.83959961 C-57.61620721 80.83727489 -56.86711932 79.93295545 -55.44140625 77.81640625 C-54.98000244 77.14552979 -54.51859863 76.47465332 -54.04321289 75.78344727 C-53.31026001 74.68407837 -53.31026001 74.68407837 -52.5625 73.5625 C-51.4906886 71.99924163 -50.41773439 70.4367663 -49.34375 68.875 C-48.79203125 68.06675781 -48.2403125 67.25851563 -47.671875 66.42578125 C-45.03042484 62.59320988 -42.29798701 58.82824612 -39.5625 55.0625 C-38.47126685 53.55475069 -37.38012149 52.04693784 -36.2890625 50.5390625 C-34.64444092 48.26903521 -32.99946651 45.99926387 -31.35449219 43.72949219 C-24.91238753 34.837627 -18.51153412 25.92040432 -12.1940918 16.93945312 C-8.18800326 11.24947002 -4.11893328 5.60901797 0 0 Z " fill="#FDFEFE" transform="translate(249,127)"/>
<path d="M0 0 C2.67207406 1.71248945 4.84810661 3.67512483 7 6 C7.94875 5.195625 8.8975 4.39125 9.875 3.5625 C14.0925871 -0.01328036 17.0268587 -0.34465748 22.51953125 -0.28125 C26.06688108 0.12096919 27.68718177 1.32580392 30 4 C32.11062505 8.15410648 32.23336326 11.64636396 32.1953125 16.26953125 C32.1924826 16.95053391 32.18965271 17.63153656 32.18673706 18.33317566 C32.17560525 20.49313455 32.15051457 22.65266794 32.125 24.8125 C32.11496111 26.28319711 32.10583685 27.75390076 32.09765625 29.22460938 C32.07568913 32.81654286 32.0412082 36.40822985 32 40 C28.7 40 25.4 40 22 40 C21.98541748 39.23333008 21.97083496 38.46666016 21.95581055 37.67675781 C21.8813078 34.20066507 21.78465354 30.72553032 21.6875 27.25 C21.65366211 25.44015625 21.65366211 25.44015625 21.61914062 23.59375 C21.58369141 22.43359375 21.54824219 21.2734375 21.51171875 20.078125 C21.48553467 19.00981445 21.45935059 17.94150391 21.43237305 16.84082031 C20.95021819 13.67291859 20.25941279 12.24841727 18 10 C14.91520274 9.55013373 12.96769306 9.33370316 10.34448242 11.13989258 C8.41055738 13.81550087 8.56522429 15.92144518 8.48828125 19.19921875 C8.45283203 20.40771484 8.41738281 21.61621094 8.38085938 22.86132812 C8.35830078 24.12396484 8.33574219 25.38660156 8.3125 26.6875 C8.27833984 27.96173828 8.24417969 29.23597656 8.20898438 30.54882812 C8.12639216 33.69913103 8.05727665 36.84915157 8 40 C4.37 40 0.74 40 -3 40 C-3.01981934 39.16227051 -3.03963867 38.32454102 -3.06005859 37.46142578 C-3.13810612 34.35634166 -3.22479635 31.25165461 -3.31738281 28.14697266 C-3.37454036 26.14113029 -3.42168596 24.13501082 -3.46875 22.12890625 C-3.50742188 20.87207031 -3.54609375 19.61523438 -3.5859375 18.3203125 C-3.6173584 17.15773926 -3.6487793 15.99516602 -3.68115234 14.79736328 C-3.72157869 11.86343518 -3.72157869 11.86343518 -6 10 C-10.05332576 9.53281851 -10.05332576 9.53281851 -13.65942383 11.13208008 C-15.58432922 13.81418737 -15.43475771 15.92067853 -15.51171875 19.19921875 C-15.54716797 20.40771484 -15.58261719 21.61621094 -15.61914062 22.86132812 C-15.65297852 24.7552832 -15.65297852 24.7552832 -15.6875 26.6875 C-15.72166016 27.96173828 -15.75582031 29.23597656 -15.79101562 30.54882812 C-15.87360784 33.69913103 -15.94272335 36.84915157 -16 40 C-19.63 40 -23.26 40 -27 40 C-27 27.13 -27 14.26 -27 1 C-24.36 1 -21.72 1 -19 1 C-18.67 2.65 -18.34 4.3 -18 6 C-17.18208984 5.3503125 -17.18208984 5.3503125 -16.34765625 4.6875 C-11.09388218 0.80778992 -6.60781071 -1.87081392 0 0 Z " fill="#F8FDFE" transform="translate(217,290)"/>
<path d="M0 0 C2.92046868 2.06569736 4.59172658 3.8166272 6.5625 6.8125 C7.10839844 10.31762695 7.10839844 10.31762695 7.171875 14.30078125 C7.18841125 15.00397995 7.20494751 15.70717865 7.22198486 16.4316864 C7.2703094 18.66288112 7.2917991 20.8933952 7.3125 23.125 C7.34067302 24.64391417 7.37060232 26.16279684 7.40234375 27.68164062 C7.47606111 31.39177971 7.52573205 35.1017898 7.5625 38.8125 C4.5925 38.8125 1.6225 38.8125 -1.4375 38.8125 C-2.0975 37.1625 -2.7575 35.5125 -3.4375 33.8125 C-4.365625 34.616875 -5.29375 35.42125 -6.25 36.25 C-9.29621256 38.89005089 -11.60291102 39.73225106 -15.6875 40.125 C-20.46847231 39.72658564 -22.53131175 38.56980935 -26.4375 35.8125 C-29.03464512 31.67438212 -29.24415235 27.56187148 -28.4375 22.8125 C-26.74485475 19.50414792 -24.49689192 17.34309834 -21.14453125 15.6640625 C-18.06411402 14.69504236 -15.53632373 14.58056133 -12.3125 14.625 C-10.76175781 14.63466797 -10.76175781 14.63466797 -9.1796875 14.64453125 C-6.4375 14.8125 -6.4375 14.8125 -3.4375 15.8125 C-3.7675 13.5025 -4.0975 11.1925 -4.4375 8.8125 C-6.47909095 8.7852384 -8.52078963 8.76598655 -10.5625 8.75 C-12.26792969 8.73259766 -12.26792969 8.73259766 -14.0078125 8.71484375 C-17.2504156 8.807173 -20.25682612 9.19860094 -23.4375 9.8125 C-25.20212683 6.72440305 -25.4375 5.57937864 -25.4375 1.8125 C-16.97480114 -0.93746791 -8.65313384 -2.98926442 0 0 Z " fill="#F6FDFD" transform="translate(344.4375,291.1875)"/>
<path d="M0 0 C4.38204503 2.53311525 7.0083993 5.13479294 8.4765625 10.08984375 C8.74466433 13.77624388 8.8028999 17.40599659 8.4765625 21.08984375 C7.4765625 22.08984375 7.4765625 22.08984375 4.97631836 22.20336914 C3.89229736 22.19813232 2.80827637 22.19289551 1.69140625 22.1875 C0.52158203 22.18427734 -0.64824219 22.18105469 -1.85351562 22.17773438 C-3.08521484 22.16935547 -4.31691406 22.16097656 -5.5859375 22.15234375 C-7.43928711 22.14557617 -7.43928711 22.14557617 -9.33007812 22.13867188 C-12.39457867 22.12683983 -15.45898471 22.11035548 -18.5234375 22.08984375 C-17.90589491 23.40586898 -17.27915008 24.71757931 -16.6484375 26.02734375 C-16.30039063 26.75824219 -15.95234375 27.48914063 -15.59375 28.2421875 C-14.6549398 30.25316834 -14.6549398 30.25316834 -12.5234375 31.08984375 C-6.81069459 31.59014506 -1.92697633 30.92934633 3.4765625 29.08984375 C5.0390625 31.40234375 5.0390625 31.40234375 6.4765625 34.08984375 C5.4765625 37.08984375 5.4765625 37.08984375 2.2890625 38.77734375 C-4.41350997 41.03568799 -12.31493232 41.48836239 -19.0625 39.24609375 C-23.17238779 36.9679537 -26.04953086 33.99743743 -27.8984375 29.6640625 C-29.54453623 22.88419335 -30.1977715 14.24180214 -26.8359375 7.90234375 C-19.89657602 -0.53742021 -10.67499655 -3.85026965 0 0 Z " fill="#F9FEFE" transform="translate(176.5234375,290.91015625)"/>
<path d="M0 0 C3.26974815 2.33553439 4.12074201 4.16140546 5.625 7.875 C5.96557617 11.40185547 5.96557617 11.40185547 5.91796875 15.2421875 C5.91372391 15.92177521 5.90947906 16.60136292 5.90510559 17.30154419 C5.88844266 19.45144924 5.85081716 21.60038299 5.8125 23.75 C5.797437 25.2161322 5.78375143 26.68227924 5.77148438 28.1484375 C5.7385808 31.72426875 5.68688663 35.29953941 5.625 38.875 C1.995 38.875 -1.635 38.875 -5.375 38.875 C-5.38958252 38.03727051 -5.40416504 37.19954102 -5.41918945 36.33642578 C-5.48020707 33.23121098 -5.55435065 30.12666883 -5.63745117 27.02197266 C-5.68709959 25.01617664 -5.72154164 23.01002313 -5.75585938 21.00390625 C-5.79130859 19.74707031 -5.82675781 18.49023438 -5.86328125 17.1953125 C-5.88946533 16.03273926 -5.91564941 14.87016602 -5.94262695 13.67236328 C-6.08531006 12.7492334 -6.22799316 11.82610352 -6.375 10.875 C-9.86624017 8.54750655 -11.26722251 8.37200684 -15.375 8.875 C-18.17546463 11.01249749 -19.2494923 12.22186602 -19.92089844 15.71582031 C-19.9418457 16.78413086 -19.96279297 17.85244141 -19.984375 18.953125 C-20.01660156 20.11328125 -20.04882812 21.2734375 -20.08203125 22.46875 C-20.10330078 24.27859375 -20.10330078 24.27859375 -20.125 26.125 C-20.15464844 27.34703125 -20.18429687 28.5690625 -20.21484375 29.828125 C-20.28552402 32.84381644 -20.33823175 35.8587355 -20.375 38.875 C-24.005 38.875 -27.635 38.875 -31.375 38.875 C-31.375 26.005 -31.375 13.135 -31.375 -0.125 C-28.405 -0.125 -25.435 -0.125 -22.375 -0.125 C-22.045 1.195 -21.715 2.515 -21.375 3.875 C-19.13804336 2.7979468 -17.18844384 1.73641543 -15.1875 0.25 C-10.10777227 -2.23342245 -5.27439938 -1.75813313 0 0 Z " fill="#F5FDFD" transform="translate(306.375,291.125)"/>
<path d="M0 0 C0.125 5.75 0.125 5.75 -1 8 C-5.95 7.67 -10.9 7.34 -16 7 C-16.33 8.65 -16.66 10.3 -17 12 C-15.2675 12.37125 -15.2675 12.37125 -13.5 12.75 C-8.12628382 14.10536003 -3.20302243 16.07235537 1 19.75 C2.52155835 23.1735063 2.62979942 26.36815669 2 30 C-0.27811869 34.47186261 -2.48749253 36.86412095 -7 39 C-9.76117824 39.26310407 -12.25168299 39.37588369 -15 39.3125 C-16.04800781 39.31733398 -16.04800781 39.31733398 -17.1171875 39.32226562 C-21.17340683 39.28017278 -24.3512141 38.78876027 -28 37 C-27.4140625 30.84765625 -27.4140625 30.84765625 -27 29 C-26.34 28.67 -25.68 28.34 -25 28 C-24.175 28.309375 -23.35 28.61875 -22.5 28.9375 C-17.93283622 30.32396043 -13.73444712 30.16841907 -9 30 C-9 28.35 -9 26.7 -9 25 C-9.72445312 24.82984375 -10.44890625 24.6596875 -11.1953125 24.484375 C-18.26712692 22.71170685 -23.79279277 21.31081085 -28 15 C-28.69920885 10.20310209 -28.71482085 6.22540718 -26.25 2 C-19.13461296 -4.32478848 -8.48759972 -3.15817664 0 0 Z " fill="#F7FDFD" transform="translate(144,292)"/>
<path d="M0 0 C0.66 0.33 1.32 0.66 2 1 C1.67 3.97 1.34 6.94 1 10 C-1.24609375 10.16276042 -3.4921875 10.32552083 -5.73828125 10.48828125 C-8.51654006 11.1168683 -9.28969804 11.73481074 -11 14 C-11.5060736 16.8028729 -11.5060736 16.8028729 -11.51171875 19.98046875 C-11.54716797 21.14384766 -11.58261719 22.30722656 -11.61914062 23.50585938 C-11.65297852 25.32827148 -11.65297852 25.32827148 -11.6875 27.1875 C-11.72166016 28.41404297 -11.75582031 29.64058594 -11.79101562 30.90429688 C-11.8735941 33.93610678 -11.94271369 36.96762379 -12 40 C-15.3 40 -18.6 40 -22 40 C-22 27.13 -22 14.26 -22 1 C-19.36 1 -16.72 1 -14 1 C-13.34 2.32 -12.68 3.64 -12 5 C-11.13375 4.175 -10.2675 3.35 -9.375 2.5 C-6.23390158 -0.13494986 -4.14053598 -0.56461854 0 0 Z " fill="#FBFEFE" transform="translate(380,290)"/>
<path d="M0 0 C3.63 0 7.26 0 11 0 C11 12.87 11 25.74 11 39 C7.37 39 3.74 39 0 39 C0 26.13 0 13.26 0 0 Z " fill="#F4FDFD" transform="translate(257,291)"/>
<path d="M0 0 C2.875 1.6875 2.875 1.6875 5 4 C5 5.65 5 7.3 5 9 C-0.28 9 -5.56 9 -11 9 C-10 3 -10 3 -8.3125 1.125 C-5.24698338 -0.36633241 -3.37622756 -0.48231822 0 0 Z " fill="#3EDEE2" transform="translate(170,298)"/>
<path d="M0 0 C3.7109611 0.31991044 4.99743948 0.7900419 7.625 3.3125 C7.3125 6.1875 7.3125 6.1875 6.625 9.3125 C3.15576119 11.62532587 1.70294425 11.73728586 -2.375 11.3125 C-4.25 10.1875 -4.25 10.1875 -5.375 8.3125 C-5.6875 5.25 -5.6875 5.25 -5.375 2.3125 C-3.375 0.3125 -3.375 0.3125 0 0 Z " fill="#F4FDFD" transform="translate(261.375,275.6875)"/>
<path d="M0 0 C0.79664063 0.00644531 1.59328125 0.01289063 2.4140625 0.01953125 C4.375 0.1875 4.375 0.1875 5.375 1.1875 C5.6875 4.0625 5.6875 4.0625 5.375 7.1875 C3.8125 9.0625 3.8125 9.0625 1.375 10.1875 C-2.25 10.5 -2.25 10.5 -5.625 10.1875 C-7.625 8.1875 -7.625 8.1875 -7.9375 5.1875 C-7.834375 4.1975 -7.73125 3.2075 -7.625 2.1875 C-4.45557116 0.07454744 -3.62870047 -0.06500929 0 0 Z " fill="#3CDEE1" transform="translate(334.625,311.8125)"/>
</svg>
